<svg width="57" height="60" viewBox="0 0 57 60" fill="none" xmlns="http://www.w3.org/2000/svg">
<path d="M29.4765 57.752H32.5891L31.2092 51.8268C30.7421 53.552 30.129 55.3672 29.3673 57.2845L29.4765 57.752Z" fill="#FF5500"/>
<path d="M12.5969 52.4967H21.7828C22.0662 51.7069 22.3085 50.9648 22.5115 50.2734H13.1141L15.1611 41.4812H23.2275C23.1443 41.1932 23.0463 40.9199 22.9304 40.6638C22.6395 40.031 22.2888 39.5601 21.7928 39.1399C21.412 38.8084 20.9838 38.5895 20.6419 38.4497H12.7542L8.26075 57.7508H11.3738L12.5969 52.4967Z" fill="#FF5500"/>
<path d="M30.3165 38.7414L13.4186 36.2156C13.2742 36.28 13.1261 36.339 12.9775 36.3976C13.2943 36.5445 13.6204 36.6839 13.964 36.8074C14.3465 37.079 14.8124 37.2401 15.3171 37.2401H15.4276C16.6799 37.5377 18.0786 37.6984 19.6297 37.6984H19.6753C19.8792 37.6984 20.0872 37.6955 20.2985 37.6901C20.6836 37.7968 21.5031 38.0843 22.1865 38.6778C22.6607 39.0809 23.1077 39.599 23.4832 40.4135C23.8524 41.2292 24.1591 42.3764 24.1604 44.0898C24.1654 46.4801 23.5255 49.9761 21.5575 54.7729C20.764 56.7095 21.691 58.9226 23.628 59.7163C24.0976 59.9088 24.5844 60 25.0628 60C26.5557 60 27.9699 59.1123 28.5709 57.6457C30.7955 52.2052 31.7354 47.798 31.7392 44.0898C31.7421 42.1185 31.4584 40.3485 30.9582 38.7898C30.7435 38.789 30.528 38.7727 30.3166 38.7409L30.3165 38.7414Z" fill="#FF5500"/>
<path d="M18.1588 22.5625C17.5891 22.6713 17.0969 22.9965 16.7713 23.4761C16.5114 23.8603 16.3854 24.3073 16.4013 24.7623C16.9819 25.1942 17.6561 25.6588 18.4396 26.1535L18.9272 22.5575C18.8916 22.5516 18.8577 22.5407 18.8217 22.5365C18.6015 22.5123 18.3785 22.5198 18.1588 22.5625Z" fill="#FF5500"/>
<path d="M25.1489 26.8665C25.179 27.0176 25.2464 27.2026 25.5285 27.4202C26.41 28.0995 26.888 28.2523 27.6254 28.3389C27.8283 28.3619 28.0493 28.3803 28.2946 28.3988L28.3536 28.4046C28.8688 28.4645 29.2493 28.7901 29.3732 29.2597L29.3727 25.6277L25.1296 26.6071C25.1283 26.7025 25.1351 26.7895 25.1489 26.8665Z" fill="#FF5500"/>
<path d="M22.2474 14.2394L22.5349 15.3745C22.856 15.3398 23.1811 15.3377 23.5097 15.3762C23.9521 15.4285 24.3907 15.5474 24.8147 15.729C26.2616 16.3522 27.3318 17.6258 27.606 19.053C27.6604 19.3363 27.6826 19.6222 27.6729 19.9068L35.4741 18.7023C33.969 17.6882 32.5146 16.4547 31.3665 15.3678C30.5743 14.6195 29.9188 13.9427 29.468 13.4601C29.3178 13.299 29.1922 13.1617 29.0897 13.0478C28.8285 12.5665 28.402 12.1882 27.8876 11.9856C26.5295 13.3943 24.6322 14.2482 22.5526 14.2482C22.4513 14.2482 22.3495 14.2436 22.2474 14.2394Z" fill="#FF5500"/>
<path d="M7.26854 36.2427C8.96615 36.7173 10.7022 36.5536 12.2754 36.02C11.3044 35.7689 10.4544 35.1992 9.84956 34.3819C9.15144 33.4381 8.86181 32.2787 9.03509 31.1177C9.22134 29.8688 9.93912 28.8031 10.9323 28.1302C10.0852 27.3785 9.36113 26.628 8.75554 25.8705C7.27641 24.0268 6.49586 22.0459 6.50046 20.1411C6.4967 18.7164 6.92235 17.527 7.40492 16.6367C6.12464 16.8527 4.8749 17.3307 3.78878 18.1606C1.98403 19.541 0.0608811 22.3757 1.15076 28.0439C2.24192 33.7121 5.07957 35.6319 7.26854 36.2427Z" fill="#FF5500"/>
<path d="M21.296 24.1686C21.5538 25.5116 20.7971 26.8112 19.5641 27.2828C19.7097 27.5386 19.8181 27.8165 19.8851 28.1111C19.8993 28.1731 19.9081 28.2359 19.9186 28.2982L28.8066 29.6263C28.8103 29.5673 28.8095 29.5095 28.799 29.4543C28.7501 29.1939 28.5437 29.0248 28.2478 29.0027C26.9746 28.9076 26.3598 28.826 25.1582 27.9002C24.8167 27.6362 24.6233 27.3436 24.5538 26.9795C24.5078 26.7384 24.5128 26.4538 24.5731 26.1135L40.2505 22.4949C40.2832 22.1438 40.3723 21.7926 40.5347 21.4574L41.1512 20.1863C41.6526 19.1462 42.7245 18.4737 43.881 18.4737C44.3405 18.4737 44.7842 18.575 45.2001 18.7767C46.1058 19.2145 46.6876 20.0486 46.8538 20.9703L50.5072 20.1274L50.5868 20.5413L56.5412 19.3961L55.7971 15.5255L49.8426 16.6707L49.9225 17.0846L26.9528 20.6321C27.0838 20.1533 27.1056 19.6569 27.0106 19.1676C26.7737 17.9346 25.8408 16.8309 24.5752 16.2864C23.3656 15.7653 22.061 15.857 20.9833 16.5455C20.949 16.5693 17.746 18.8311 14.5613 17.8601C13.836 18.2971 13.1772 18.8583 12.8759 19.3049C12.6189 19.6815 12.5662 19.9071 12.5632 20.1478C12.5683 20.6534 12.8826 21.3126 13.4995 22.0936C13.9281 22.6347 14.6438 23.3881 15.8194 24.3172C15.9764 23.1696 16.844 22.1974 18.044 21.9667C19.5503 21.6767 21.0063 22.6627 21.296 24.1686Z" fill="#FF5500"/>
<path d="M8.39785 16.1863C7.66918 17.2197 7.10333 18.5879 7.1075 20.1423C7.10374 21.9245 7.8412 23.7597 9.23026 25.4916C9.84551 26.2613 10.5897 27.0297 11.482 27.8078C12.0608 27.527 12.7058 27.3696 13.3792 27.3696C13.5965 27.3696 13.8162 27.3863 14.033 27.4186L19.2827 28.2029C19.137 27.6149 18.7741 27.0796 18.2204 26.7318C15.5661 25.0673 13.9229 23.6033 13.0239 22.4682C12.1173 21.3188 11.9621 20.5953 11.9579 20.1415C11.9621 19.7397 12.0784 19.3965 12.3735 18.9642C12.8046 18.3264 13.6856 17.6479 14.4691 17.2097C14.4775 17.2047 14.485 17.2009 14.4934 17.1963C14.8475 17.3256 15.2175 17.4165 15.6004 17.4617C17.5453 17.6889 19.374 16.8012 20.1901 16.327C19.8528 16.232 19.5317 16.0671 19.248 15.8315L19.1597 15.6921L19.6728 13.6655C18.6578 13.2403 17.7743 12.6037 17.0624 11.8202H15.3167C15.1757 11.8202 15.0388 11.8348 14.9049 11.8587C14.6634 11.8675 14.4194 11.9123 14.1795 11.9977C14.0582 12.0462 12.5719 12.5669 10.9246 13.722C10.9007 13.7392 10.8769 13.7547 10.853 13.7718C10.0168 14.372 9.13072 15.1429 8.39785 16.1863Z" fill="#FF5500"/>
<path d="M9.63538 31.2058C9.32567 33.275 10.7533 35.204 12.8234 35.5134L30.4069 38.1413C30.5965 38.1698 30.7849 38.1836 30.9711 38.1836C32.816 38.1836 34.4336 36.8342 34.7153 34.9541C35.0238 32.8841 33.5969 30.955 31.5264 30.6453L13.9429 28.0181C11.8728 27.7088 9.94424 29.1356 9.63534 31.2056L9.63538 31.2058Z" fill="#FF5500"/>
<path d="M24.0946 0.179224C27.7622 1.03346 30.0433 4.69946 29.189 8.36746C28.3348 12.0355 24.6688 14.3169 21.0012 13.4627C17.3332 12.6085 15.0522 8.9425 15.9064 5.2745C16.7606 1.60607 20.4266 -0.674936 24.0946 0.179224Z" fill="#FF5500"/>
<path d="M44.9343 19.3224C43.7281 18.739 42.2778 19.2433 41.6949 20.4499L41.0792 21.721C40.8829 22.127 40.8122 22.5606 40.8477 22.9791L35.357 24.2464C37.0458 25.0847 38.8743 25.7041 40.849 25.713H40.8633C41.8853 25.713 42.9459 25.5255 43.9546 25.0994C44.5841 24.9111 45.1365 24.472 45.4454 23.8338L46.0611 22.5619C46.1925 22.2903 46.2662 22.0065 46.2917 21.7227C46.3796 20.7471 45.868 19.7744 44.9343 19.3224Z" fill="#FF5500"/>
</svg>
