<svg width="65" height="64" viewBox="0 0 65 64" fill="none" xmlns="http://www.w3.org/2000/svg">
<path d="M9.08567 38.708C8.43193 39.0855 7.87626 39.6433 7.60552 40.3483C7.25801 41.2528 7.33185 42.2331 7.80827 43.0509L10.6314 47.9433C11.2055 48.942 12.258 49.5044 13.3406 49.5044C13.8671 49.5044 14.4053 49.3667 14.8955 49.0855L18.6281 46.9307C18.6886 46.8961 18.7633 46.9044 18.8146 46.9516C21.0173 48.9725 23.6377 50.4869 26.47 51.3713C26.5363 51.3921 26.5814 51.4526 26.5814 51.5227V55.6704C26.5814 57.4839 28.0516 58.9537 29.8647 58.9537H35.1876C37.001 58.9537 38.4708 57.4835 38.4708 55.6704V51.5227C38.4708 51.4535 38.5159 51.3921 38.5822 51.3713C41.4153 50.486 44.0357 48.9725 46.2377 46.9516C46.289 46.9044 46.3637 46.8961 46.4241 46.9307L50.1588 49.0855C50.6432 49.3604 51.1755 49.5044 51.7137 49.5044C51.9887 49.5044 52.2582 49.4685 52.5273 49.3967C53.3345 49.1815 54.0045 48.6612 54.4234 47.9433L57.2465 43.0509C57.7234 42.2332 57.7968 41.2532 57.4493 40.3487C57.1785 39.6441 56.6228 39.0855 55.9692 38.7084L52.3721 36.6321C52.3116 36.5975 52.282 36.5282 52.2966 36.4598C52.6208 35.0184 52.7914 33.5374 52.7914 32.0401C52.7914 30.5424 52.627 29.0556 52.3083 27.6138C52.2933 27.5462 52.3233 27.4769 52.3838 27.4423L55.9699 25.3709C56.6237 24.9933 57.1793 24.4356 57.4497 23.731C57.7972 22.8265 57.7238 21.8465 57.2469 21.0288L54.4238 16.1364C53.5627 14.6471 51.6487 14.1326 50.1592 14.9942L46.4267 17.149C46.3662 17.1836 46.2915 17.1753 46.2402 17.1281C44.0433 15.1073 41.4233 13.5933 38.5847 12.7084C38.5184 12.6876 38.4729 12.6271 38.4729 12.557L38.4721 8.40972C38.4721 6.59625 37.0019 5.12646 35.1888 5.12646H29.8659C28.0525 5.12646 26.5827 6.59668 26.5827 8.40972V12.5574C26.5827 12.6267 26.5376 12.688 26.4709 12.7088C23.6323 13.5941 21.0124 15.1077 18.8154 17.1286C18.7641 17.1757 18.6894 17.184 18.6289 17.1494L14.8955 14.9946C14.1717 14.582 13.3286 14.4681 12.5271 14.6838C11.7199 14.8991 11.0499 15.4193 10.631 16.1373L7.80784 21.0297C7.331 21.8473 7.25758 22.8273 7.6051 23.7318C7.87586 24.4364 8.43155 24.995 9.08524 25.3717L12.6823 27.448C12.7428 27.4827 12.7724 27.5519 12.7578 27.6203C12.4336 29.0617 12.263 30.5427 12.263 32.04C12.263 33.5377 12.4336 35.0184 12.7578 36.4598C12.7732 36.5278 12.7428 36.5974 12.6823 36.6321L9.08567 38.708ZM32.5272 19.234C35.5614 19.234 38.0303 21.7021 38.0303 24.7371C38.0303 27.7717 35.5614 30.2402 32.5272 30.2402C29.493 30.2402 27.0241 27.7722 27.0241 24.7371C27.0241 21.7025 29.493 19.234 32.5272 19.234ZM24.5656 40.468C24.5656 36.078 28.1371 32.5064 32.5272 32.5064C36.9174 32.5064 40.4889 36.0779 40.4889 40.468V40.7396C40.4889 42.5535 39.1305 44.0609 37.3291 44.2444L37.2986 44.2473L27.7258 44.2444C25.9244 44.06 24.566 42.5535 24.566 40.7396V40.468H24.5656Z" fill="#FF5500"/>
</svg>
