<svg width="61" height="61" viewBox="0 0 61 61" fill="none" xmlns="http://www.w3.org/2000/svg">
<path d="M38.9809 15.5466C38.7505 15.5466 38.5131 15.5736 38.2757 15.6076C38.3774 16.2655 38.384 16.6991 38.384 16.7195V20.4077C38.384 22.1163 36.194 23.1194 33.462 23.5266C33.9297 24.157 34.4787 24.7946 35.0959 25.4112C35.7263 26.0416 36.3703 26.5906 36.9804 27.0517C37.1024 26.2109 37.2788 25.4382 37.5025 24.7737C38.2483 22.5837 39.326 22.123 40.0992 22.123H43.7875C43.7875 22.123 44.2486 22.123 44.9131 22.2384C45.1027 20.8216 44.7438 19.147 43.0554 17.4587C41.7875 16.1908 40.425 15.5539 38.9808 15.5539L38.9809 15.5466Z" fill="#FF5500"/>
<path d="M22.7241 44.4088C22.6225 43.758 22.6158 43.3173 22.6158 43.3036V39.6153C22.6158 37.9067 24.8059 36.9037 27.5379 36.4964C27.0702 35.866 26.5211 35.2285 25.904 34.6119C25.2736 33.9815 24.6295 33.4324 24.0195 32.9713C23.8975 33.8122 23.7211 34.5849 23.4974 35.2493C22.7516 37.4394 21.6739 37.9 20.9006 37.9H17.2124C17.2124 37.9 16.7513 37.9 16.0868 37.7846C15.8972 39.2015 16.2561 40.8761 17.9445 42.5643C19.4156 44.0355 21.0155 44.639 22.7241 44.4016L22.7241 44.4088Z" fill="#FF5500"/>
<path d="M40.1007 37.893C38.3921 37.893 37.3891 35.7029 36.9818 32.9709C36.3514 33.4387 35.7073 33.9948 35.0973 34.6049C34.4669 35.2352 33.9178 35.8728 33.4634 36.4828C36.2025 36.8895 38.3921 37.893 38.3921 39.6017V43.29C38.3921 43.29 38.3921 43.7511 38.2767 44.4156C39.6935 44.6052 41.3681 44.2463 43.0564 42.5579C44.7447 40.8697 45.097 39.1884 44.914 37.7782C44.2496 37.8865 43.8088 37.8936 43.7885 37.8936H40.1002L40.1007 37.893Z" fill="#FF5500"/>
<path d="M20.8996 22.1229C22.6082 22.1229 23.6113 24.3129 24.0185 27.0449C24.6489 26.5772 25.293 26.0211 25.9031 25.411C26.5335 24.7806 27.0825 24.1431 27.537 23.533C26.6961 23.411 25.9234 23.2346 25.259 23.0109C23.0689 22.2652 22.6082 21.1874 22.6082 20.4142V16.7259C22.6082 16.7259 22.6082 16.2648 22.7236 15.6075C22.5066 15.5805 22.2829 15.5602 22.0455 15.5602C20.7847 15.5602 19.3674 16.035 17.9367 17.4585C16.2485 19.1468 15.8962 20.828 16.0791 22.2382C16.7435 22.1299 17.1843 22.1228 17.2046 22.1228L20.8996 22.1229Z" fill="#FF5500"/>
<path d="M30.5002 9.84558C23.7272 9.84558 23.6325 16.4357 23.6325 16.7203V20.4086C23.6325 21.7034 26.6497 22.7207 30.5002 22.7207C34.3512 22.7207 37.3679 21.704 37.3679 20.4086V16.7203C37.3679 16.4422 37.2729 9.84558 30.5002 9.84558Z" fill="#FF5500"/>
<path d="M49.2049 16.7331C50.7031 15.2349 50.7031 12.8009 49.2049 11.3027C48.4591 10.5569 47.4759 10.1771 46.4932 10.1771C45.5101 10.1771 44.5274 10.5498 43.7816 11.3027C42.2834 12.8009 42.2834 15.2349 43.7816 16.7331C45.2798 18.2313 47.7138 18.2313 49.212 16.7331H49.2049Z" fill="#FF5500"/>
<path d="M30.5002 50.1703C37.2733 50.1703 37.3679 43.5801 37.3679 43.2955V39.6072C37.3679 38.7664 36.1407 38.2239 35.4086 37.9733C34.1407 37.5392 32.3507 37.2952 30.5002 37.2952C26.6492 37.2952 23.6325 38.3119 23.6325 39.6073V43.2956C23.6325 43.5736 23.7276 50.1703 30.5002 50.1703Z" fill="#FF5500"/>
<path d="M11.7955 43.2828C10.2973 44.781 10.2973 47.2151 11.7955 48.7132C13.2937 50.2114 15.7277 50.2114 17.2259 48.7132C18.7241 47.2151 18.7241 44.781 17.2259 43.2828C15.7277 41.7846 13.2937 41.7846 11.7955 43.2828Z" fill="#FF5500"/>
<path d="M50.6626 30.008C50.6626 23.2349 44.0725 23.1403 43.7878 23.1403H40.0995C39.2587 23.1403 38.7162 24.3675 38.4656 25.0996C38.0315 26.3675 37.7875 28.1575 37.7875 30.008C37.7875 33.859 38.8042 36.8757 40.0996 36.8757H43.7879C44.066 36.8757 50.6626 36.7806 50.6626 30.008Z" fill="#FF5500"/>
<path d="M43.7751 48.7126C45.2733 50.2108 47.7073 50.2108 49.2055 48.7126C50.7037 47.2144 50.7037 44.7804 49.2055 43.2822C47.7073 41.784 45.2733 41.784 43.7751 43.2822C42.2769 44.7804 42.2769 47.2144 43.7751 48.7126Z" fill="#FF5500"/>
<path d="M10.3378 30.008C10.3378 36.781 16.9279 36.8757 17.2126 36.8757H20.9008C21.7417 36.8757 22.2841 35.6484 22.5347 34.9164C22.9689 33.6484 23.2129 31.8585 23.2129 30.008C23.2129 26.157 22.1961 23.1403 20.9008 23.1403H17.2125C16.9344 23.1403 10.3378 23.2353 10.3378 30.008Z" fill="#FF5500"/>
<path d="M17.2253 11.3033C16.4795 10.5575 15.4963 10.1777 14.5136 10.1777C13.5304 10.1777 12.5478 10.5504 11.802 11.3033C10.3038 12.8015 10.3038 15.2355 11.802 16.7337C13.3002 18.2319 15.7342 18.2319 17.2324 16.7337C18.7306 15.2355 18.7306 12.8015 17.2324 11.3033H17.2253Z" fill="#FF5500"/>
<path d="M30.5002 8.82741C32.9342 8.82741 34.9139 6.84774 34.9139 4.41371C34.9139 1.97967 32.9342 0 30.5002 0C28.0662 0 26.0865 1.97967 26.0865 4.41371C26.0865 6.84774 28.0662 8.82741 30.5002 8.82741Z" fill="#FF5500"/>
<path d="M30.5002 51.1885C28.0662 51.1885 26.0865 53.1681 26.0865 55.6022C26.0865 58.0362 28.0662 60.0159 30.5002 60.0159C32.9342 60.0159 34.9139 58.0362 34.9139 55.6022C34.9139 53.1681 32.9342 51.1885 30.5002 51.1885Z" fill="#FF5500"/>
<path d="M56.0863 34.422C58.5203 34.422 60.5 32.4423 60.5 30.0083C60.5 27.5743 58.5203 25.5946 56.0863 25.5946C53.6522 25.5946 51.6725 27.5743 51.6725 30.0083C51.6725 32.4423 53.6522 34.422 56.0863 34.422Z" fill="#FF5500"/>
<path d="M0.5 30.0079C0.5 32.442 2.47967 34.4217 4.91371 34.4217C7.34774 34.4217 9.32741 32.442 9.32741 30.0079C9.32741 27.5739 7.34774 25.5942 4.91371 25.5942C2.47967 25.5942 0.5 27.5739 0.5 30.0079Z" fill="#FF5500"/>
</svg>
