<svg width="57" height="60" viewBox="0 0 57 60" fill="none" xmlns="http://www.w3.org/2000/svg">
<path d="M20.1517 43.3443C19.8759 42.7065 20.7875 42.4332 20.7875 42.4332C20.7875 42.4332 23.2505 42.251 24.9821 45.0335C24.9821 45.0335 25.0467 45.0244 25.1571 45.0215L25.1976 44.9275C25.1716 44.9255 25.1571 44.9246 25.1571 44.9246C25.1721 44.9246 25.1836 44.9255 25.1976 44.9255L25.3692 44.5293C25.3692 44.5293 25.5756 43.4788 25.5756 43.0463C25.5756 42.6144 25.4391 42.181 25.4391 42.181L23.9572 37.0733C23.9572 37.0733 23.6612 36.207 24.4364 35.9105C25.2116 35.614 25.5312 36.3207 25.5312 36.3207C25.5312 36.3207 27.1953 40.9492 27.3771 41.5205C27.5603 42.0889 27.9705 41.4284 27.9705 41.4284L27.8804 35.4998C27.8804 35.4998 27.7661 34.5192 28.8147 34.4271C29.8642 34.336 29.7731 35.8646 29.7731 35.8646C29.7731 35.8646 29.8642 40.9714 29.8873 41.5657C29.9095 42.1602 30.2976 41.6337 30.2976 41.6337C30.2976 41.6337 31.6422 36.8919 31.7805 36.3896C31.916 35.8882 32.1454 35.3411 32.8985 35.4544C33.6496 35.5686 33.3526 37.1875 33.3526 37.1875C33.3526 37.1875 32.1898 42.0209 32.1223 42.3863C32.0534 42.7512 32.3041 42.6828 32.3041 42.6828C32.3041 42.6828 34.5847 39.126 34.766 38.8743C34.9502 38.6237 35.3151 38.0765 36.0209 38.4641C36.7267 38.8522 35.7934 40.403 35.7934 40.403C35.7934 40.403 34.0603 43.4358 33.8997 43.7314C33.7411 44.0274 33.7642 44.2106 33.7642 44.2106L33.65 46.5372C33.1958 49.6832 31.6888 50.5501 31.6888 50.5501L32.0234 59.9422C31.4097 59.9798 30.7921 60 30.1693 60C28.86 60 27.5718 59.9132 26.3063 59.7503L26.5821 50.2744C26.5821 50.2744 26.1709 50.0006 25.3508 49.4978C24.5308 48.9964 23.7546 47.7662 23.5725 47.3555C23.3902 46.9452 22.979 45.8046 21.7931 44.6649C20.6071 43.5286 20.4244 43.9842 20.1515 43.3445L20.1517 43.3443ZM44.4494 17.167L52.3031 9.75637C51.0877 8.4277 49.7543 7.20948 48.3197 6.11665L41.2972 13.6575C41.2972 13.6575 39.7502 13.24 37.4 14.9963L35.8086 16.4391C35.8086 16.4391 35.7044 16.5726 35.407 16.6628C35.1105 16.7515 32.002 17.599 32.002 17.599C32.002 17.599 30.3822 18.0006 30.5904 18.715C30.7987 19.4276 31.3931 19.3095 31.677 19.2651C31.959 19.2207 35.7666 18.3867 35.7666 18.3867C35.7666 18.3867 35.9758 18.5063 35.6928 18.6991C35.4084 18.8948 31.4977 21.2888 31.4977 21.2888C31.4977 21.2888 30.2492 22.1503 30.6647 22.7154C31.0812 23.2804 31.5869 23.0731 32.0025 22.8345C32.42 22.5968 36.389 20.3806 36.389 20.3806C36.389 20.3806 36.9853 20.2914 36.6127 20.693C36.2415 21.0946 32.9691 24.4851 32.9691 24.4851C32.9691 24.4851 31.9129 25.4223 32.6568 26.0471C33.4011 26.6709 33.9652 25.9569 33.9652 25.9569L37.7728 22.0312C37.7728 22.0312 38.4713 21.8693 38.2197 22.3586C37.9661 22.8498 36.0329 26.9533 36.0329 26.9533C36.0329 26.9533 35.7803 27.6234 36.4788 27.9348C37.1783 28.2462 37.5486 27.4889 37.5486 27.4889L39.9132 23.1911C39.9132 23.1911 40.1065 22.8189 40.3895 22.5379C40.6725 22.2549 41.4896 21.7048 41.4896 21.7048L41.8598 21.5583C41.868 21.5674 41.8772 21.5766 41.8859 21.5848C41.8859 21.5848 41.8767 21.5756 41.8608 21.5563L41.9486 21.5221C42.0233 21.592 42.07 21.6282 42.07 21.6282C41.3845 24.5722 43.1094 26.0595 43.1094 26.0595C43.1094 26.0595 43.8836 26.475 44.1204 25.8797C44.358 25.2852 43.9425 25.4631 43.9111 23.9475C43.8817 22.4309 44.3571 21.419 44.5065 21.0328C44.6569 20.6457 44.9524 19.3374 44.7451 18.4758C44.5378 17.6138 44.4496 17.167 44.4496 17.167L44.4494 17.167ZM38.0246 13.7557C36.7374 12.5163 36.2895 11.2768 36.0914 10.8309C35.8923 10.384 35.0492 9.04576 34.1573 8.50249C33.2664 7.95532 32.82 7.65836 32.82 7.65836L33.0374 0.137397C32.094 0.0472466 31.1356 0 30.167 0C29.1007 0 28.0488 0.0573676 27.0118 0.164869L27.2678 7.36002C27.2678 7.36002 25.6311 8.30202 25.1365 11.7225L25.0131 14.251C25.0131 14.251 25.0372 14.4501 24.8655 14.7726C24.6915 15.0937 22.808 18.3901 22.808 18.3901C22.808 18.3901 21.7927 20.0754 22.5602 20.4968C23.3277 20.9181 23.7239 20.3237 23.924 20.0508C24.1222 19.778 26.601 15.9117 26.601 15.9117C26.601 15.9117 26.8748 15.8369 26.7991 16.2342C26.7244 16.6314 25.4613 21.8857 25.4613 21.8857C25.4613 21.8857 25.1388 23.6448 25.956 23.7692C26.7731 23.8936 27.0223 23.2982 27.1703 22.753C27.3198 22.2072 28.781 17.0519 28.781 17.0519C28.781 17.0519 29.2028 16.4816 29.2269 17.1266C29.251 17.7716 29.3503 23.3238 29.3503 23.3238C29.3503 23.3238 29.251 24.9851 30.3917 24.8857C31.5313 24.7864 31.4079 23.7201 31.4079 23.7201L31.3091 17.276C31.3091 17.276 31.754 16.5582 31.9531 17.1767C32.1522 17.7967 33.9611 22.8282 33.9611 22.8282C33.9611 22.8282 34.3087 23.5966 35.1509 23.2741C35.9931 22.9516 35.6715 22.0096 35.6715 22.0096L34.0599 16.4585C34.0599 16.4585 33.9114 15.9865 33.9114 15.5174C33.9114 15.0455 34.1351 13.9058 34.1351 13.9058L34.3212 13.4753H34.3655C34.3655 13.4753 34.3501 13.4753 34.3221 13.4733L34.3655 13.3721C34.487 13.3682 34.5555 13.36 34.5555 13.36C36.438 16.3852 39.115 16.1856 39.115 16.1856C39.115 16.1856 40.1066 15.8882 39.8073 15.1949C39.5108 14.4993 39.3136 14.9944 38.0245 13.7559L38.0246 13.7557ZM25.1698 23.7113L21.2957 21.5809C21.2957 21.5809 20.9602 21.4069 20.7061 21.1523C20.4511 20.8973 19.956 20.1597 19.956 20.1597L19.8234 19.8261C19.8316 19.8179 19.8389 19.8107 19.8475 19.802C19.8475 19.802 19.8384 19.8102 19.8225 19.8242L19.7921 19.7461C19.8548 19.6786 19.888 19.6367 19.888 19.6367C22.5419 20.2542 23.8816 18.6995 23.8816 18.6995C23.8816 18.6995 24.2567 18.0019 23.7196 17.7888C23.1835 17.5743 23.3445 17.9493 21.9769 17.9768C20.6102 18.0029 19.699 17.5743 19.3495 17.4407C19.0005 17.3062 17.8208 17.0382 17.0446 17.2272C16.267 17.4133 15.864 17.4942 15.864 17.4942L8.29479 9.47086C7.16237 10.677 6.12826 11.9753 5.20611 13.3551L12.7015 20.3352C12.7015 20.3352 12.3255 21.7304 13.9087 23.8472L15.2088 25.2819C15.2088 25.2819 15.3294 25.3759 15.4108 25.643C15.4899 25.911 16.255 28.7124 16.255 28.7124C16.255 28.7124 16.617 30.1732 17.2601 29.9861C17.9022 29.798 17.7957 29.2624 17.7566 29.0074C17.7161 28.7524 16.966 25.3214 16.966 25.3214C16.966 25.3214 17.074 25.1334 17.2481 25.3879C17.4221 25.6425 19.5803 29.168 19.5803 29.168C19.5803 29.168 20.357 30.2941 20.8665 29.9191C21.3761 29.543 21.1881 29.088 20.9736 28.7129C20.76 28.3369 18.7617 24.7588 18.7617 24.7588C18.7617 24.7588 18.6817 24.2218 19.0428 24.5578C19.4048 24.8934 22.4607 27.8417 22.4607 27.8417C22.4607 27.8417 23.3058 28.7939 23.8679 28.1228C24.431 27.4517 23.7869 26.9431 23.7869 26.9431L20.2494 23.5107C20.2494 23.5107 20.1028 22.8811 20.5444 23.1092C20.987 23.3377 24.6856 25.0795 24.6856 25.0795C24.6856 25.0795 25.2891 25.308 25.5702 24.6769C25.8527 24.0459 25.1696 23.7113 25.1696 23.7113L25.1698 23.7113ZM56.1738 44.9656L51.3352 40.4585C51.3352 40.4585 51.8264 38.6349 49.7568 35.8667L48.0565 33.9904C48.0565 33.9904 47.8989 33.868 47.7919 33.5185C47.6887 33.1675 46.6889 29.5047 46.6889 29.5047C46.6889 29.5047 46.2159 27.5951 45.3738 27.8406C44.5335 28.0855 44.6733 28.7859 44.7258 29.1205C44.7784 29.4531 45.7599 33.9399 45.7599 33.9399C45.7599 33.9399 45.6192 34.1868 45.3911 33.8522C45.1636 33.5195 42.3419 28.9093 42.3419 28.9093C42.3419 28.9093 41.3257 27.4365 40.6594 27.9278C39.9932 28.4191 40.2391 29.0144 40.5211 29.5052C40.8012 29.9964 43.4117 34.6746 43.4117 34.6746C43.4117 34.6746 43.5168 35.3775 43.0448 34.9373C42.5704 34.4977 38.5754 30.6434 38.5754 30.6434C38.5754 30.6434 37.4704 29.3996 36.7343 30.2756C35.9972 31.152 36.8394 31.8182 36.8394 31.8182L41.4659 36.3049C41.4659 36.3049 41.6578 37.1288 41.0798 36.8309C40.5013 36.5325 35.664 34.2537 35.664 34.2537C35.664 34.2537 34.8753 33.9562 34.5065 34.7796C34.1396 35.6035 35.032 36.0413 35.032 36.0413L40.0973 38.8267C40.0973 38.8267 40.535 39.0552 40.8667 39.3859C41.2003 39.7195 41.8482 40.6842 41.8482 40.6842L42.0212 41.12C42.0111 41.1311 42.002 41.1413 41.9899 41.1523C41.9899 41.1523 42.002 41.1413 42.0232 41.1229L42.0637 41.2251C41.9808 41.3138 41.9374 41.3678 41.9374 41.3678C38.4678 40.5598 36.7155 42.5933 36.7155 42.5933C36.7155 42.5933 36.2242 43.5044 36.9266 43.7831C37.6271 44.0641 37.4179 43.5738 39.2055 43.5382C40.9911 43.5039 42.1838 44.0636 42.6398 44.2396C43.0968 44.4146 44.6385 44.7651 45.6538 44.5197C46.671 44.2753 47.1975 44.1707 47.1975 44.1707L52.6085 49.9051C53.9579 48.3908 55.1539 46.7348 56.174 44.9657L56.1738 44.9656ZM16.2272 33.4949C16.8115 33.4737 21.8382 33.3836 21.8382 33.3836C21.8382 33.3836 23.3424 33.4727 23.2527 32.4411C23.1635 31.4089 22.1964 31.5203 22.1964 31.5203L16.3618 31.6105C16.3618 31.6105 15.7115 31.207 16.2716 31.0262C16.8328 30.8463 21.3885 29.2083 21.3885 29.2083C21.3885 29.2083 22.0851 28.8949 21.793 28.1308C21.5008 27.3677 20.6485 27.6589 20.6485 27.6589L15.6209 29.1186C15.6209 29.1186 15.1942 29.2531 14.7686 29.2531C14.3419 29.2531 13.3098 29.0501 13.3098 29.0501L12.9193 28.8814V28.8409C12.9193 28.8409 12.9193 28.8549 12.9174 28.8814L12.8253 28.8409C12.8224 28.732 12.8142 28.6693 12.8142 28.6693C15.5529 26.9647 15.3731 24.5412 15.3731 24.5412C15.3731 24.5412 15.1031 23.6436 14.4754 23.9145C13.8468 24.1835 14.2956 24.3633 13.1743 25.53C12.052 26.6966 10.9296 27.1011 10.5257 27.28C10.1212 27.4598 8.91021 28.2225 8.41656 29.031C7.92098 29.8375 7.65245 30.243 7.65245 30.243L0.166656 30.0251C0.167621 31.8985 0.34262 33.7303 0.67237 35.5078L7.38448 35.2702C7.38448 35.2702 8.23778 36.7511 11.3347 37.2L13.6247 37.3114C13.6247 37.3114 13.8045 37.2902 14.0966 37.4459C14.3878 37.6035 17.3724 39.3092 17.3724 39.3092C17.3724 39.3092 18.8982 40.228 19.28 39.5324C19.6613 38.8377 19.1224 38.478 18.8765 38.2977C18.6297 38.1189 15.1278 35.8743 15.1278 35.8743C15.1278 35.8743 15.0613 35.6265 15.4199 35.6944C15.7786 35.7624 20.5368 36.9064 20.5368 36.9064C20.5368 36.9064 22.1301 37.1976 22.2424 36.4585C22.3547 35.7176 21.8158 35.4929 21.3216 35.3604C20.8275 35.2239 16.1604 33.9006 16.1604 33.9006C16.1614 33.8997 15.6432 33.5164 16.2275 33.4952L16.2272 33.4949Z" fill="#FF5500"/>
</svg>
