<svg width="65" height="64" viewBox="0 0 65 64" fill="none" xmlns="http://www.w3.org/2000/svg">
<path fill-rule="evenodd" clip-rule="evenodd" d="M38.0537 10.485C26.6788 7.37742 14.952 14.2376 11.8444 25.8471C9.26437 35.5215 13.6035 45.4309 21.7536 50.2388L23.8644 46.3689C17.4145 42.5579 14.0141 34.7007 16.0076 26.9611C18.5286 17.7553 27.8516 12.2439 36.9399 14.7652C46.0283 17.2278 51.4225 26.6679 49.0185 35.9321C47.787 40.6229 44.7383 44.3754 40.81 46.5448L39.6374 42.0887L33.5397 50.2973L42.8038 54.2842L41.9241 50.9422C47.2599 48.3038 51.54 43.3787 53.1818 37.046C56.2894 25.4951 49.4877 13.5924 38.0542 10.4848L38.0537 10.485ZM40.4578 36.5185L34.5944 30.2445V20.8628H30.4902V32.4723L31.0767 33.1173L37.4091 39.5673L40.4578 36.5185Z" fill="#FF5500"/>
</svg>
