<svg width="61" height="60" viewBox="0 0 61 60" fill="none" xmlns="http://www.w3.org/2000/svg">
<path d="M28.641 13.0611C34.9995 12.3684 41.0158 15.3212 44.4608 20.2057L37.6295 18.9501L36.7219 23.7876L51.4533 26.5298L54.2431 11.8365L49.4055 10.9289L48.2852 17.0065C43.7933 10.8881 36.2222 7.23555 28.1456 8.11521C17.8349 9.23854 9.98117 17.3541 8.7095 27.2301L13.7789 26.6778C15.1781 19.5704 21.0796 13.8844 28.641 13.0607L28.641 13.0611Z" fill="#FF5500"/>
<path d="M52.3466 32.7361L47.2772 33.2884C45.878 40.3965 39.9768 46.0821 32.4154 46.9058C26.0569 47.5985 20.0406 44.6457 16.5956 39.7612L23.4269 41.0168L24.3345 36.1793L9.46954 33.4081L6.72739 48.1396L11.5649 49.0472L12.6852 42.9696C17.1771 49.088 24.7482 52.7406 32.8248 51.8609C43.174 50.6897 51.075 42.6126 52.3468 32.7366L52.3466 32.7361Z" fill="#FF5500"/>
</svg>
