<svg width="166" height="36" viewBox="0 0 166 36" fill="none" xmlns="http://www.w3.org/2000/svg">
<path d="M54.174 14.5881H50.71V22.4081C50.71 22.9365 50.8699 23.3592 51.1364 23.6763C51.4561 23.9933 51.8292 24.099 52.3621 24.099C52.6818 24.099 52.9483 24.0461 53.268 23.9933C53.5878 23.9404 53.8542 23.8348 54.1207 23.6763L54.2273 25.1029C53.9075 25.2086 53.5878 25.3142 53.2147 25.3671C52.8417 25.4727 52.4687 25.4728 52.2022 25.4728C51.616 25.4728 51.1364 25.3671 50.7633 25.2086C50.337 25.05 50.0172 24.8387 49.8041 24.5217C49.5376 24.2575 49.3777 23.9404 49.2712 23.5706C49.1646 23.2536 49.1113 22.8309 49.1113 22.4081V14.5881H46.5V13.1615H49.1113V9.72705H50.71V13.1615H54.174V14.5881Z" fill="#333333"/>
<path d="M55.2397 19.185C55.2397 18.2868 55.3996 17.4414 55.7194 16.6488C56.0391 15.8562 56.4655 15.2222 57.0517 14.641C57.5846 14.0598 58.2774 13.6371 59.0767 13.32C59.8761 13.003 60.7288 12.8445 61.6347 12.8445C62.5407 12.8445 63.3933 13.003 64.1927 13.32C64.9921 13.6371 65.6316 14.0598 66.2178 14.641C66.804 15.2222 67.2303 15.8562 67.5501 16.6488C67.8698 17.4414 68.0297 18.2868 68.0297 19.185C68.0297 20.0833 67.8698 20.9287 67.5501 21.7213C67.2303 22.5138 66.804 23.1479 66.2178 23.7291C65.6316 24.3103 64.9921 24.733 64.1927 25.05C63.3933 25.3671 62.5407 25.5256 61.6347 25.5256C60.7288 25.5256 59.8761 25.3671 59.0767 25.05C58.2774 24.733 57.6379 24.3103 57.0517 23.7291C56.4655 23.1479 56.0391 22.5138 55.7194 21.7213C55.3996 20.9287 55.2397 20.0833 55.2397 19.185ZM56.7852 19.185C56.7852 19.8719 56.8918 20.506 57.1049 21.0872C57.3181 21.6684 57.6379 22.1968 58.0642 22.6723C58.4905 23.095 58.9702 23.4649 59.6097 23.7291C60.1959 23.9933 60.8886 24.099 61.5814 24.099C62.3275 24.099 62.967 23.9933 63.5532 23.7291C64.1394 23.4649 64.6723 23.095 65.0987 22.6723C65.525 22.2496 65.8448 21.7213 66.0579 21.0872C66.2711 20.506 66.3777 19.8719 66.3777 19.185C66.3777 18.4981 66.2711 17.8641 66.0579 17.2829C65.8448 16.7016 65.525 16.1733 65.0987 15.6977C64.6723 15.275 64.1927 14.9052 63.5532 14.641C62.967 14.3768 62.2742 14.2711 61.5814 14.2711C60.8354 14.2711 60.1959 14.3768 59.6097 14.641C59.0234 14.9052 58.4905 15.275 58.0642 15.6977C57.6379 16.1204 57.3181 16.6488 57.1049 17.2829C56.8918 17.8641 56.7852 18.4981 56.7852 19.185Z" fill="#333333"/>
<path d="M82.6318 24.4158C82.6318 25.8953 82.4186 27.1106 81.9923 28.0088C81.5659 28.9071 81.033 29.6468 80.3402 30.1223C79.7007 30.6507 78.9547 30.9678 78.2086 31.1263C77.4625 31.2848 76.7697 31.3905 76.1835 31.3905C75.5973 31.3905 74.9578 31.3376 74.3716 31.2319C73.7854 31.1263 73.2525 30.9678 72.7195 30.7564C72.1866 30.545 71.707 30.2809 71.2807 29.9638C70.8543 29.6468 70.4813 29.2769 70.1615 28.9071L71.3873 27.7446C71.9735 28.5372 72.6662 29.1184 73.4656 29.4355C74.3183 29.8053 75.171 29.9638 76.1302 29.9638C76.9296 29.9638 77.6224 29.8582 78.1553 29.6468C78.6882 29.4354 79.1678 29.1713 79.5409 28.8014C79.9139 28.4844 80.1804 28.1145 80.3935 27.6918C80.6067 27.2691 80.7666 26.8992 80.8199 26.4765C80.9264 26.0538 80.9797 25.684 80.9797 25.3141C80.9797 24.9442 80.9797 24.68 80.9797 24.4158V22.725H80.9264C80.4468 23.4648 79.8606 24.046 79.0612 24.4158C78.2619 24.8386 77.3559 25.0499 76.3434 25.0499C75.4374 25.0499 74.638 24.8914 73.8387 24.5744C73.0393 24.2573 72.3465 23.8346 71.7603 23.2534C71.1741 22.6722 70.6945 22.0381 70.3747 21.2984C70.055 20.5587 69.8418 19.7661 69.8418 18.9207C69.8418 18.0753 70.0017 17.2827 70.3747 16.543C70.6945 15.8033 71.1741 15.1692 71.7603 14.588C72.3465 14.0068 73.0393 13.5841 73.8387 13.267C74.638 12.95 75.4907 12.7915 76.3434 12.7915C77.4092 12.7915 78.3152 13.0029 79.0612 13.4256C79.8606 13.8483 80.4468 14.4295 80.9264 15.1164H80.9797V13.1085H82.5785V24.4158H82.6318ZM81.0863 19.0264C81.0863 18.3923 80.9797 17.7583 80.7133 17.1771C80.4468 16.5958 80.1271 16.0675 79.7007 15.6448C79.2744 15.222 78.7415 14.905 78.1553 14.6408C77.5691 14.3766 76.9296 14.271 76.2901 14.271C75.6506 14.271 75.0111 14.3766 74.4249 14.6408C73.8387 14.905 73.3057 15.222 72.8794 15.6448C72.4531 16.0675 72.1333 16.5958 71.8669 17.1771C71.6004 17.7583 71.4938 18.3923 71.4938 19.0264C71.4938 19.6604 71.6004 20.2945 71.8669 20.8757C72.1333 21.4569 72.4531 21.9853 72.8794 22.408C73.3057 22.8307 73.8387 23.1477 74.4249 23.4119C75.0111 23.6761 75.6506 23.7818 76.2901 23.7818C76.9296 23.7818 77.5691 23.6761 78.1553 23.4119C78.7415 23.1477 79.2744 22.8307 79.7007 22.408C80.1271 21.9853 80.4468 21.4569 80.7133 20.8757C80.9797 20.2945 81.0863 19.6604 81.0863 19.0264Z" fill="#333333"/>
<path d="M97.6066 24.4158C97.6066 25.8953 97.3935 27.1106 96.9671 28.0088C96.5408 28.9071 96.0079 29.6468 95.3151 30.1223C94.6756 30.6507 93.9295 30.9678 93.1834 31.1263C92.4373 31.2848 91.7446 31.3905 91.1583 31.3905C90.5721 31.3905 89.9326 31.3376 89.3464 31.2319C88.7602 31.1263 88.2273 30.9678 87.6944 30.7564C87.1615 30.545 86.6819 30.2809 86.2555 29.9638C85.8292 29.6468 85.4561 29.2769 85.1364 28.9071L86.3621 27.7446C86.9483 28.5372 87.6411 29.1184 88.4405 29.4355C89.2931 29.8053 90.1458 29.9638 91.105 29.9638C91.9044 29.9638 92.5972 29.8582 93.1301 29.6468C93.663 29.4354 94.1427 29.1713 94.5157 28.8014C94.8887 28.4844 95.1552 28.1145 95.3684 27.6918C95.5815 27.2691 95.7414 26.8992 95.7947 26.4765C95.9013 26.0538 95.9546 25.684 95.9546 25.3141C95.9546 24.9442 95.9546 24.68 95.9546 24.4158V22.725H95.9013C95.4217 23.4648 94.8355 24.046 94.0361 24.4158C93.2367 24.8386 92.3308 25.0499 91.3182 25.0499C90.4123 25.0499 89.6129 24.8914 88.8135 24.5744C88.0141 24.2573 87.3214 23.8346 86.7351 23.2534C86.1489 22.6722 85.6693 22.0381 85.3496 21.2984C85.0298 20.5587 84.8167 19.7661 84.8167 18.9207C84.8167 18.0753 84.9765 17.2827 85.3496 16.543C85.7226 15.8033 86.1489 15.1692 86.7351 14.588C87.3214 14.0068 88.0141 13.5841 88.8135 13.267C89.6129 12.95 90.4656 12.7915 91.3182 12.7915C92.384 12.7915 93.29 13.0029 94.0361 13.4256C94.8355 13.8483 95.4217 14.4295 95.9013 15.1164H95.9546V13.1085H97.5533V24.4158H97.6066ZM96.0612 19.0264C96.0612 18.3923 95.9546 17.7583 95.6881 17.1771C95.4217 16.5958 95.1019 16.0675 94.6756 15.6448C94.2493 15.222 93.7163 14.905 93.1301 14.6408C92.5439 14.3766 91.9044 14.271 91.2649 14.271C90.6254 14.271 89.9859 14.3766 89.3997 14.6408C88.8135 14.905 88.2806 15.222 87.8543 15.6448C87.4279 16.0675 87.1082 16.5958 86.8417 17.1771C86.5753 17.7583 86.4687 18.3923 86.4687 19.0264C86.4687 19.6604 86.5753 20.2945 86.8417 20.8757C87.1082 21.4569 87.4279 21.9853 87.8543 22.408C88.2806 22.8307 88.8135 23.1477 89.3997 23.4119C89.9859 23.6761 90.6254 23.7818 91.2649 23.7818C91.9044 23.7818 92.5439 23.6761 93.1301 23.4119C93.7163 23.1477 94.2493 22.8307 94.6756 22.408C95.1019 21.9853 95.4217 21.4569 95.6881 20.8757C95.9546 20.2945 96.0612 19.6604 96.0612 19.0264Z" fill="#333333"/>
<path d="M100.644 5.5H102.243V25.1557H100.644V5.5Z" fill="#333333"/>
<path d="M116.365 22.9365C115.779 23.8348 114.98 24.5217 114.074 24.8915C113.168 25.3142 112.155 25.4727 111.089 25.4727C110.183 25.4727 109.331 25.3142 108.585 24.9972C107.839 24.6802 107.199 24.2575 106.666 23.6763C106.133 23.095 105.707 22.461 105.44 21.6684C105.174 20.8758 105.014 20.0304 105.014 19.1322C105.014 18.2339 105.174 17.3885 105.44 16.6488C105.76 15.9091 106.133 15.2222 106.719 14.641C107.252 14.0598 107.892 13.6371 108.638 13.32C109.384 13.003 110.183 12.8445 111.089 12.8445C111.995 12.8445 112.848 13.003 113.541 13.32C114.234 13.6371 114.82 14.0598 115.299 14.5881C115.779 15.1165 116.152 15.6977 116.365 16.3846C116.632 17.0715 116.738 17.7584 116.738 18.4453V19.5549H106.56C106.56 19.8719 106.613 20.2946 106.773 20.823C106.879 21.3514 107.146 21.8269 107.519 22.3025C107.892 22.778 108.318 23.2007 108.904 23.5706C109.491 23.9404 110.237 24.099 111.196 24.099C111.995 24.099 112.795 23.8876 113.541 23.5177C114.287 23.1479 114.873 22.6195 115.246 21.9326L116.365 22.9365ZM115.14 18.1283C115.14 17.5999 115.033 17.0715 114.82 16.596C114.607 16.1204 114.287 15.6977 113.914 15.3807C113.541 15.0108 113.114 14.7466 112.582 14.5353C112.049 14.3239 111.516 14.2183 110.93 14.2183C110.077 14.2183 109.384 14.3768 108.798 14.7466C108.212 15.1165 107.785 15.4864 107.466 15.9619C107.146 16.4375 106.879 16.8602 106.773 17.2829C106.613 17.7056 106.56 18.0226 106.56 18.1283H115.14Z" fill="#333333"/>
<path d="M129.368 23.4121C128.782 24.099 128.089 24.6273 127.343 24.9972C126.597 25.3142 125.798 25.5256 124.892 25.5256C123.986 25.5256 123.133 25.3671 122.334 25.05C121.534 24.733 120.895 24.3103 120.309 23.7291C119.723 23.1479 119.296 22.5138 118.976 21.7213C118.657 20.9287 118.497 20.0833 118.497 19.185C118.497 18.2868 118.657 17.4414 118.976 16.6488C119.296 15.8562 119.723 15.2222 120.309 14.641C120.842 14.0598 121.534 13.6371 122.334 13.32C123.133 13.003 123.986 12.8445 124.892 12.8445C125.798 12.8445 126.597 13.003 127.397 13.3729C128.143 13.7427 128.835 14.2711 129.422 14.9052L128.143 15.8562C127.663 15.3279 127.183 14.958 126.65 14.6938C126.118 14.4296 125.531 14.2711 124.892 14.2711C124.146 14.2711 123.506 14.3768 122.92 14.641C122.334 14.9052 121.801 15.275 121.375 15.6977C120.948 16.1204 120.628 16.6488 120.415 17.2829C120.202 17.8641 120.096 18.4981 120.096 19.185C120.096 19.8719 120.202 20.506 120.415 21.0872C120.628 21.6684 120.948 22.1968 121.375 22.6723C121.801 23.095 122.281 23.4649 122.92 23.7291C123.506 23.9933 124.199 24.099 124.892 24.099C125.531 24.099 126.171 23.9404 126.704 23.6234C127.237 23.3064 127.716 22.9365 128.143 22.4081L129.368 23.4121Z" fill="#333333"/>
<path d="M130.061 19.1848C130.061 18.2865 130.221 17.4411 130.541 16.6486C130.86 15.856 131.287 15.2219 131.873 14.6407C132.406 14.0595 133.099 13.6368 133.898 13.3198C134.697 13.0028 135.55 12.8442 136.456 12.8442C137.362 12.8442 138.215 13.0028 139.014 13.3198C139.813 13.6368 140.453 14.0595 141.039 14.6407C141.625 15.2219 142.052 15.856 142.371 16.6486C142.691 17.4411 142.851 18.2865 142.851 19.1848C142.851 20.083 142.691 20.9284 142.371 21.721C142.052 22.5136 141.625 23.1476 141.039 23.7289C140.453 24.3101 139.813 24.7328 139.014 25.0498C138.215 25.3668 137.362 25.5253 136.456 25.5253C135.55 25.5253 134.697 25.3668 133.898 25.0498C133.099 24.7328 132.459 24.3101 131.873 23.7289C131.287 23.1476 130.86 22.5136 130.541 21.721C130.221 20.9284 130.061 20.083 130.061 19.1848ZM131.66 19.1848C131.66 19.8717 131.766 20.5057 131.98 21.087C132.193 21.6682 132.512 22.1966 132.939 22.6721C133.365 23.0948 133.845 23.4647 134.484 23.7289C135.07 23.993 135.763 24.0987 136.456 24.0987C137.202 24.0987 137.842 23.993 138.428 23.7289C139.014 23.4647 139.547 23.0948 139.973 22.6721C140.4 22.2494 140.719 21.721 140.933 21.087C141.146 20.5057 141.252 19.8717 141.252 19.1848C141.252 18.4979 141.146 17.8638 140.933 17.2826C140.719 16.7014 140.4 16.173 139.973 15.6975C139.547 15.2748 139.067 14.9049 138.428 14.6407C137.842 14.3765 137.149 14.2709 136.456 14.2709C135.71 14.2709 135.07 14.3765 134.484 14.6407C133.898 14.9049 133.365 15.2748 132.939 15.6975C132.512 16.1202 132.193 16.6486 131.98 17.2826C131.766 17.8638 131.66 18.4979 131.66 19.1848Z" fill="#333333"/>
<path d="M145.302 16.5429C145.302 16.3315 145.302 16.0674 145.302 15.6975C145.302 15.3805 145.249 15.0634 145.249 14.7464C145.249 14.4294 145.249 14.1123 145.196 13.8482C145.196 13.584 145.196 13.3198 145.196 13.1613H146.795C146.795 13.6368 146.848 14.0595 146.848 14.4822C146.848 14.9049 146.901 15.1691 146.901 15.2748C147.327 14.5879 147.807 14.0067 148.447 13.5311C149.086 13.0556 149.832 12.8442 150.738 12.8442C150.898 12.8442 151.058 12.8442 151.218 12.8971C151.378 12.8971 151.538 12.9499 151.697 13.0028L151.538 14.5351C151.324 14.4822 151.111 14.4294 150.951 14.4294C150.259 14.4294 149.672 14.5351 149.193 14.7464C148.713 14.9578 148.287 15.2748 147.967 15.6446C147.647 16.0145 147.381 16.4901 147.221 16.9656C147.061 17.494 147.008 18.0224 147.008 18.6036V25.1555H145.409V16.5429H145.302Z" fill="#333333"/>
<path d="M152.657 13.1614H154.255V15.2749H154.309C154.575 14.8522 154.842 14.4824 155.215 14.2182C155.588 13.9011 155.961 13.6898 156.387 13.4784C156.813 13.2671 157.24 13.1086 157.719 13.0557C158.199 13.0029 158.679 12.8972 159.105 12.8972C160.011 12.8972 160.864 13.0557 161.663 13.3728C162.462 13.6898 163.102 14.1125 163.688 14.6937C164.274 15.2749 164.701 15.909 165.02 16.7015C165.34 17.4941 165.5 18.3395 165.5 19.2378C165.5 20.136 165.34 20.9814 165.02 21.774C164.701 22.5666 164.274 23.2006 163.688 23.7818C163.102 24.363 162.462 24.7857 161.663 25.1028C160.864 25.4198 160.011 25.5783 159.105 25.5783C158.625 25.5783 158.199 25.5255 157.719 25.4198C157.24 25.3141 156.813 25.1556 156.387 24.9971C155.961 24.7858 155.534 24.5216 155.215 24.2574C154.842 23.9403 154.522 23.5705 154.309 23.2006H154.255V31.232H152.657V13.1614ZM154.042 19.1849C154.042 19.8718 154.149 20.5059 154.415 21.0871C154.682 21.6683 155.055 22.1967 155.481 22.6722C155.961 23.0949 156.494 23.4648 157.08 23.729C157.666 23.9932 158.359 24.0989 159.052 24.0989C159.798 24.0989 160.437 23.9932 161.024 23.729C161.61 23.4648 162.143 23.0949 162.569 22.6722C162.995 22.2495 163.315 21.7212 163.528 21.0871C163.741 20.5059 163.848 19.8718 163.848 19.1849C163.848 18.498 163.741 17.864 163.528 17.2828C163.315 16.7015 162.995 16.1732 162.569 15.6976C162.143 15.2749 161.663 14.9051 161.024 14.6409C160.437 14.3767 159.745 14.271 159.052 14.271C158.359 14.271 157.666 14.3767 157.08 14.6409C156.494 14.9051 155.961 15.2749 155.481 15.6976C155.002 16.1203 154.682 16.6487 154.415 17.2828C154.202 17.864 154.042 18.498 154.042 19.1849Z" fill="#333333"/>
<path d="M20.2754 18.253C20.1554 17.9557 19.7957 17.9557 19.5558 18.1935L14.0392 24.7928C12.3002 26.8737 11.9405 29.7869 13.1397 32.2244L14.339 34.662C14.4589 34.9593 15.4783 36.0889 16.8575 33.9486L23.2136 24.7334C23.2736 24.6144 23.3335 24.4361 23.2735 24.3172L21.7145 21.2256L20.2754 18.253Z" fill="#333333"/>
<path d="M23.2135 24.0794C23.3934 24.4361 23.1535 24.9117 22.7338 24.9117L10.9809 25.3279C7.26321 25.4468 3.8453 23.4254 2.22628 20.096L0.60727 16.7666C0.427379 16.3505 0.067591 14.3291 3.48551 14.6858L18.7162 15.5181C18.9561 15.5181 19.136 15.637 19.196 15.8154L21.2347 19.9771L23.2135 24.0794Z" fill="#FF5500"/>
<path d="M20.9348 17.7178C20.8149 17.4205 20.9947 17.1233 21.2946 17.1233L29.9293 16.826C32.6876 16.7071 35.2061 18.2529 36.4053 20.6904L37.6046 23.128C37.7245 23.4253 38.0243 24.9116 35.5059 24.6143L24.2927 23.9604C24.1128 23.9604 23.9929 23.8414 23.933 23.7225L22.4339 20.631L20.9348 17.7178Z" fill="#333333"/>
<path d="M23.7531 23.5442C23.933 23.9009 24.4727 23.9604 24.7126 23.6631L32.208 14.6857C34.6065 11.8319 35.0263 7.90804 33.4073 4.57867L31.7283 1.2493C31.5484 0.833132 30.1692 -0.653194 28.3703 2.26L19.7356 14.7451C19.6157 14.9235 19.6157 15.1613 19.6756 15.3397L21.7743 19.5014L23.7531 23.5442Z" fill="#FF5500"/>
</svg>
