<svg width="164" height="50" viewBox="0 0 164 50" fill="none" xmlns="http://www.w3.org/2000/svg">
<g clip-path="url(#clip0_572_1990)">
<path d="M146.551 17.7171C146.431 17.4198 146.071 17.4198 145.831 17.6576L140.314 24.2569C138.575 26.3378 138.216 29.251 139.415 31.6885L140.614 34.1261C140.734 34.4234 141.753 35.553 143.133 33.4127L149.489 24.1975C149.549 24.0786 149.609 23.9002 149.549 23.7813L147.99 20.6897L146.551 17.7171Z" fill="#F9ECE5"/>
<path d="M149.489 23.5434C149.669 23.9001 149.429 24.3757 149.009 24.3757L137.256 24.7919C133.539 24.9108 130.121 22.8894 128.502 19.56L126.883 16.2306C126.703 15.8145 126.343 13.7931 129.761 14.1498L144.992 14.9821C145.231 14.9821 145.411 15.101 145.471 15.2794L147.51 19.4411L149.489 23.5434Z" fill="#FF5500"/>
<path d="M147.21 17.1819C147.09 16.8846 147.27 16.5874 147.57 16.5874L156.205 16.2901C158.963 16.1712 161.482 17.717 162.681 20.1545L163.88 22.5921C164 22.8894 164.3 24.3757 161.781 24.0784L150.568 23.4245C150.388 23.4245 150.268 23.3056 150.208 23.1867L148.709 20.0951L147.21 17.1819Z" fill="#F9ECE5"/>
<path d="M150.029 23.0083C150.208 23.365 150.748 23.4245 150.988 23.1272L158.483 14.1498C160.882 11.2961 161.302 7.37215 159.683 4.04278L158.004 0.713415C157.824 0.297243 156.445 -1.18908 154.646 1.72412L146.011 14.2093C145.891 14.3876 145.891 14.6254 145.951 14.8038L148.05 18.9655L150.029 23.0083Z" fill="#FF5500"/>
<path d="M8.63473 31.0345H4.73711V39.8335C4.73711 40.4281 4.917 40.9037 5.21682 41.2604C5.5766 41.6171 5.99634 41.736 6.59598 41.736C6.95576 41.736 7.25558 41.6766 7.61536 41.6171C7.97514 41.5577 8.27495 41.4388 8.57477 41.2604L8.6947 42.8656C8.33492 42.9846 7.97514 43.1035 7.55539 43.1629C7.13565 43.2818 6.7159 43.2818 6.41609 43.2818C5.75649 43.2818 5.21682 43.1629 4.79707 42.9846C4.31737 42.8062 3.95759 42.5684 3.71773 42.2117C3.41792 41.9144 3.23803 41.5577 3.1181 41.1415C2.99817 40.7848 2.93821 40.3092 2.93821 39.8335V31.0345H0V29.4293H2.93821V25.5648H4.73711V29.4293H8.63473V31.0345Z" fill="#F9ECE5"/>
<path d="M9.83401 36.2069C9.83401 35.1962 10.0139 34.2449 10.3737 33.3531C10.7335 32.4613 11.2132 31.7479 11.8728 31.0939C12.4724 30.4399 13.2519 29.9643 14.1514 29.6076C15.0508 29.2509 16.0102 29.0725 17.0296 29.0725C18.049 29.0725 19.0084 29.2509 19.9079 29.6076C20.8073 29.9643 21.5269 30.4399 22.1865 31.0939C22.8461 31.7479 23.3258 32.4613 23.6856 33.3531C24.0453 34.2449 24.2252 35.1962 24.2252 36.2069C24.2252 37.2176 24.0453 38.1688 23.6856 39.0606C23.3258 39.9524 22.8461 40.6659 22.1865 41.3198C21.5269 41.9738 20.8073 42.4494 19.9079 42.8062C19.0084 43.1629 18.049 43.3412 17.0296 43.3412C16.0102 43.3412 15.0508 43.1629 14.1514 42.8062C13.2519 42.4494 12.5324 41.9738 11.8728 41.3198C11.2132 40.6659 10.7335 39.9524 10.3737 39.0606C10.0139 38.1688 9.83401 37.2176 9.83401 36.2069ZM11.573 36.2069C11.573 36.9798 11.6929 37.6932 11.9327 38.3472C12.1726 39.0012 12.5324 39.5957 13.0121 40.1308C13.4918 40.6064 14.0315 41.0226 14.751 41.3198C15.4106 41.6171 16.1901 41.736 16.9697 41.736C17.8092 41.736 18.5287 41.6171 19.1883 41.3198C19.8479 41.0226 20.4475 40.6064 20.9272 40.1308C21.407 39.6551 21.7667 39.0606 22.0066 38.3472C22.2464 37.6932 22.3664 36.9798 22.3664 36.2069C22.3664 35.434 22.2464 34.7205 22.0066 34.0666C21.7667 33.4126 21.407 32.818 20.9272 32.283C20.4475 31.8073 19.9079 31.3912 19.1883 31.0939C18.5287 30.7966 17.7492 30.6777 16.9697 30.6777C16.1302 30.6777 15.4106 30.7966 14.751 31.0939C14.0914 31.3912 13.4918 31.8073 13.0121 32.283C12.5324 32.7586 12.1726 33.3531 11.9327 34.0666C11.6929 34.7205 11.573 35.434 11.573 36.2069Z" fill="#F9ECE5"/>
<path d="M40.6552 42.0927C40.6552 43.7574 40.4153 45.1248 39.9356 46.1355C39.4559 47.1462 38.8563 47.9786 38.0768 48.5137C37.3572 49.1082 36.5177 49.4649 35.6782 49.6433C34.8388 49.8216 34.0592 49.9405 33.3996 49.9405C32.74 49.9405 32.0205 49.8811 31.3609 49.7622C30.7013 49.6433 30.1016 49.4649 29.502 49.2271C28.9024 48.9893 28.3627 48.692 27.883 48.3353C27.4033 47.9786 26.9835 47.5624 26.6238 47.1462L28.0029 45.8383C28.6625 46.7301 29.442 47.3841 30.3415 47.7408C31.3009 48.1569 32.2603 48.3353 33.3397 48.3353C34.2391 48.3353 35.0186 48.2164 35.6183 47.9786C36.2179 47.7408 36.7576 47.4435 37.1773 47.0273C37.5971 46.6706 37.8969 46.2544 38.1367 45.7788C38.3766 45.3032 38.5565 44.887 38.6164 44.4114C38.7364 43.9358 38.7963 43.5196 38.7963 43.1034C38.7963 42.6873 38.7963 42.39 38.7963 42.0927V40.1902H38.7364C38.1967 41.0226 37.5371 41.6766 36.6377 42.0927C35.7382 42.5684 34.7188 42.8062 33.5795 42.8062C32.5601 42.8062 31.6607 42.6278 30.7612 42.2711C29.8618 41.9144 29.0823 41.4387 28.4227 40.7848C27.7631 40.1308 27.2234 39.4173 26.8636 38.585C26.5038 37.7527 26.264 36.8609 26.264 35.9096C26.264 34.9584 26.4439 34.0666 26.8636 33.2342C27.2234 32.4019 27.7631 31.6884 28.4227 31.0345C29.0823 30.3805 29.8618 29.9049 30.7612 29.5481C31.6607 29.1914 32.6201 29.0131 33.5795 29.0131C34.7788 29.0131 35.7982 29.2509 36.6377 29.7265C37.5371 30.2021 38.1967 30.8561 38.7364 31.629H38.7963V29.3698H40.5952V42.0927H40.6552ZM38.9163 36.0285C38.9163 35.3151 38.7963 34.6016 38.4965 33.9477C38.1967 33.2937 37.8369 32.6992 37.3572 32.2235C36.8775 31.7479 36.2779 31.3912 35.6183 31.0939C34.9587 30.7967 34.2391 30.6777 33.5196 30.6777C32.8 30.6777 32.0804 30.7967 31.4208 31.0939C30.7612 31.3912 30.1616 31.7479 29.6819 32.2235C29.2022 32.6992 28.8424 33.2937 28.5426 33.9477C28.2428 34.6016 28.1228 35.3151 28.1228 36.0285C28.1228 36.742 28.2428 37.4554 28.5426 38.1094C28.8424 38.7634 29.2022 39.3579 29.6819 39.8335C30.1616 40.3091 30.7612 40.6659 31.4208 40.9631C32.0804 41.2604 32.8 41.3793 33.5196 41.3793C34.2391 41.3793 34.9587 41.2604 35.6183 40.9631C36.2779 40.6659 36.8775 40.3091 37.3572 39.8335C37.8369 39.3579 38.1967 38.7634 38.4965 38.1094C38.7963 37.4554 38.9163 36.742 38.9163 36.0285Z" fill="#F9ECE5"/>
<path d="M57.5049 42.0927C57.5049 43.7574 57.2651 45.1248 56.7854 46.1355C56.3057 47.1462 55.706 47.9786 54.9265 48.5137C54.2069 49.1082 53.3675 49.4649 52.528 49.6433C51.6885 49.8216 50.909 49.9405 50.2494 49.9405C49.5898 49.9405 48.8702 49.8811 48.2106 49.7622C47.551 49.6433 46.9514 49.4649 46.3517 49.2271C45.7521 48.9893 45.2124 48.692 44.7327 48.3353C44.253 47.9786 43.8333 47.5624 43.4735 47.1462L44.8526 45.8383C45.5122 46.7301 46.2918 47.3841 47.1912 47.7408C48.1506 48.1569 49.11 48.3353 50.1894 48.3353C51.0888 48.3353 51.8684 48.2164 52.468 47.9786C53.0676 47.7408 53.6073 47.4435 54.0271 47.0273C54.4468 46.6706 54.7466 46.2544 54.9865 45.7788C55.2263 45.3032 55.4062 44.887 55.4662 44.4114C55.5861 43.9358 55.6461 43.5196 55.6461 43.1034C55.6461 42.6873 55.6461 42.39 55.6461 42.0927V40.1902H55.5861C55.0464 41.0226 54.3868 41.6766 53.4874 42.0927C52.5879 42.5684 51.5686 42.8062 50.4292 42.8062C49.4099 42.8062 48.5104 42.6278 47.611 42.2711C46.7115 41.9144 45.932 41.4387 45.2724 40.7848C44.6128 40.1308 44.0731 39.4173 43.7133 38.585C43.3536 37.7527 43.1137 36.8609 43.1137 35.9096C43.1137 34.9584 43.2936 34.0666 43.7133 33.2342C44.1331 32.4019 44.6128 31.6884 45.2724 31.0345C45.932 30.3805 46.7115 29.9049 47.611 29.5481C48.5104 29.1914 49.4698 29.0131 50.4292 29.0131C51.6285 29.0131 52.6479 29.2509 53.4874 29.7265C54.3868 30.2021 55.0464 30.8561 55.5861 31.629H55.6461V29.3698H57.445V42.0927H57.5049ZM55.766 36.0285C55.766 35.3151 55.6461 34.6016 55.3463 33.9477C55.0464 33.2937 54.6867 32.6992 54.2069 32.2235C53.7272 31.7479 53.1276 31.3912 52.468 31.0939C51.8084 30.7967 51.0888 30.6777 50.3693 30.6777C49.6497 30.6777 48.9302 30.7967 48.2706 31.0939C47.611 31.3912 47.0113 31.7479 46.5316 32.2235C46.0519 32.6992 45.6921 33.2937 45.3923 33.9477C45.0925 34.6016 44.9726 35.3151 44.9726 36.0285C44.9726 36.742 45.0925 37.4554 45.3923 38.1094C45.6921 38.7634 46.0519 39.3579 46.5316 39.8335C47.0113 40.3091 47.611 40.6659 48.2706 40.9631C48.9302 41.2604 49.6497 41.3793 50.3693 41.3793C51.0888 41.3793 51.8084 41.2604 52.468 40.9631C53.1276 40.6659 53.7272 40.3091 54.2069 39.8335C54.6867 39.3579 55.0464 38.7634 55.3463 38.1094C55.6461 37.4554 55.766 36.742 55.766 36.0285Z" fill="#F9ECE5"/>
<path d="M60.9229 20.8086H62.7218V42.9251H60.9229V20.8086Z" fill="#F9ECE5"/>
<path d="M78.6121 40.428C77.9525 41.4387 77.053 42.2116 76.0336 42.6278C75.0143 43.1034 73.8749 43.2818 72.6757 43.2818C71.6563 43.2818 70.6969 43.1034 69.8574 42.7467C69.0179 42.39 68.2983 41.9144 67.6987 41.2604C67.0991 40.6064 66.6194 39.893 66.3195 39.0012C66.0197 38.1094 65.8398 37.1581 65.8398 36.1474C65.8398 35.1367 66.0197 34.1855 66.3195 33.3531C66.6793 32.5208 67.0991 31.7479 67.7587 31.0939C68.3583 30.4399 69.0779 29.9643 69.9174 29.6076C70.7568 29.2509 71.6563 29.0725 72.6757 29.0725C73.6951 29.0725 74.6545 29.2509 75.434 29.6076C76.2135 29.9643 76.8731 30.4399 77.4128 31.0345C77.9525 31.629 78.3722 32.283 78.6121 33.0559C78.9119 33.8288 79.0318 34.6016 79.0318 35.3745V36.623H67.5788C67.5788 36.9798 67.6387 37.4554 67.8186 38.0499C67.9386 38.6444 68.2384 39.1795 68.6581 39.7146C69.0779 40.2497 69.5576 40.7253 70.2172 41.1415C70.8768 41.5576 71.7163 41.736 72.7956 41.736C73.6951 41.736 74.5945 41.4982 75.434 41.082C76.2735 40.6658 76.9331 40.0713 77.3528 39.2984L78.6121 40.428ZM77.2329 35.0178C77.2329 34.4233 77.113 33.8288 76.8731 33.2937C76.6333 32.7586 76.2735 32.283 75.8537 31.9263C75.434 31.5101 74.9543 31.2128 74.3547 30.975C73.755 30.7372 73.1554 30.6183 72.4958 30.6183C71.5364 30.6183 70.7568 30.7966 70.0972 31.2128C69.4377 31.629 68.9579 32.0452 68.5982 32.5802C68.2384 33.1153 67.9386 33.5909 67.8186 34.0666C67.6387 34.5422 67.5788 34.8989 67.5788 35.0178H77.2329Z" fill="#F9ECE5"/>
<path d="M93.2433 40.9631C92.5837 41.736 91.8042 42.3305 90.9647 42.7467C90.1252 43.1034 89.2257 43.3412 88.2064 43.3412C87.187 43.3412 86.2276 43.1629 85.3281 42.8062C84.4287 42.4494 83.7091 41.9738 83.0495 41.3198C82.3899 40.6659 81.9102 39.9524 81.5504 39.0606C81.1906 38.1688 81.0107 37.2176 81.0107 36.2069C81.0107 35.1962 81.1906 34.2449 81.5504 33.3531C81.9102 32.4613 82.3899 31.7479 83.0495 31.0939C83.6491 30.4399 84.4287 29.9643 85.3281 29.6076C86.2276 29.2509 87.187 29.0725 88.2064 29.0725C89.2257 29.0725 90.1252 29.2509 91.0246 29.667C91.8641 30.0832 92.6436 30.6777 93.3032 31.3912L91.8641 32.4613C91.3244 31.8668 90.7848 31.4506 90.1851 31.1534C89.5855 30.8561 88.9259 30.6777 88.2064 30.6777C87.3669 30.6777 86.6473 30.7966 85.9877 31.0939C85.3281 31.3912 84.7285 31.8073 84.2488 32.283C83.7691 32.7586 83.4093 33.3531 83.1694 34.0666C82.9296 34.7205 82.8096 35.434 82.8096 36.2069C82.8096 36.9798 82.9296 37.6932 83.1694 38.3472C83.4093 39.0012 83.7691 39.5957 84.2488 40.1308C84.7285 40.6064 85.2681 41.0226 85.9877 41.3198C86.6473 41.6171 87.4268 41.736 88.2064 41.736C88.9259 41.736 89.6455 41.5576 90.2451 41.2009C90.8447 40.8442 91.3844 40.428 91.8641 39.8335L93.2433 40.9631Z" fill="#F9ECE5"/>
<path d="M94.0227 36.2069C94.0227 35.1962 94.2026 34.2449 94.5623 33.3531C94.9221 32.4613 95.4018 31.7479 96.0614 31.0939C96.6611 30.4399 97.4406 29.9643 98.34 29.6076C99.2395 29.2509 100.199 29.0725 101.218 29.0725C102.238 29.0725 103.197 29.2509 104.097 29.6076C104.996 29.9643 105.716 30.4399 106.375 31.0939C107.035 31.7479 107.514 32.4613 107.874 33.3531C108.234 34.2449 108.414 35.1962 108.414 36.2069C108.414 37.2176 108.234 38.1688 107.874 39.0606C107.514 39.9524 107.035 40.6659 106.375 41.3198C105.716 41.9738 104.996 42.4494 104.097 42.8062C103.197 43.1629 102.238 43.3412 101.218 43.3412C100.199 43.3412 99.2395 43.1629 98.34 42.8062C97.4406 42.4494 96.721 41.9738 96.0614 41.3198C95.4018 40.6659 94.9221 39.9524 94.5623 39.0606C94.2026 38.1688 94.0227 37.2176 94.0227 36.2069ZM95.8216 36.2069C95.8216 36.9798 95.9415 37.6932 96.1814 38.3472C96.4212 39.0012 96.781 39.5957 97.2607 40.1308C97.7404 40.6064 98.2801 41.0226 98.9996 41.3198C99.6592 41.6171 100.439 41.736 101.218 41.736C102.058 41.736 102.777 41.6171 103.437 41.3198C104.097 41.0226 104.696 40.6064 105.176 40.1308C105.656 39.6551 106.015 39.0606 106.255 38.3472C106.495 37.6932 106.615 36.9798 106.615 36.2069C106.615 35.434 106.495 34.7205 106.255 34.0666C106.015 33.4126 105.656 32.818 105.176 32.283C104.696 31.8073 104.156 31.3912 103.437 31.0939C102.777 30.7966 101.998 30.6777 101.218 30.6777C100.379 30.6777 99.6592 30.7966 98.9996 31.0939C98.34 31.3912 97.7404 31.8073 97.2607 32.283C96.781 32.7586 96.4212 33.3531 96.1814 34.0666C95.9415 34.7205 95.8216 35.434 95.8216 36.2069Z" fill="#F9ECE5"/>
<path d="M111.172 33.2342C111.172 32.9964 111.172 32.6991 111.172 32.283C111.172 31.9263 111.112 31.5695 111.112 31.2128C111.112 30.8561 111.112 30.4994 111.052 30.2021C111.052 29.9049 111.052 29.6076 111.052 29.4292H112.851C112.851 29.9643 112.911 30.4399 112.911 30.9156C112.911 31.3912 112.971 31.6884 112.971 31.8073C113.451 31.0345 113.991 30.3805 114.71 29.8454C115.43 29.3103 116.269 29.0725 117.289 29.0725C117.468 29.0725 117.648 29.0725 117.828 29.132C118.008 29.132 118.188 29.1914 118.368 29.2509L118.188 30.975C117.948 30.9156 117.708 30.8561 117.528 30.8561C116.749 30.8561 116.089 30.975 115.55 31.2128C115.01 31.4506 114.53 31.8073 114.17 32.2235C113.811 32.6397 113.511 33.1748 113.331 33.7098C113.151 34.3044 113.091 34.8989 113.091 35.5529V42.9251H111.292V33.2342H111.172Z" fill="#F9ECE5"/>
<path d="M119.447 29.4292H121.246V31.8073H121.306C121.606 31.3317 121.906 30.9155 122.325 30.6183C122.745 30.2616 123.165 30.0238 123.645 29.7859C124.124 29.5481 124.604 29.3698 125.144 29.3103C125.683 29.2509 126.223 29.132 126.703 29.132C127.722 29.132 128.682 29.3103 129.581 29.667C130.48 30.0238 131.2 30.4994 131.86 31.1534C132.519 31.8073 132.999 32.5208 133.359 33.4126C133.718 34.3044 133.898 35.2556 133.898 36.2663C133.898 37.277 133.718 38.2283 133.359 39.1201C132.999 40.0119 132.519 40.7253 131.86 41.3793C131.2 42.0333 130.48 42.5089 129.581 42.8656C128.682 43.2223 127.722 43.4007 126.703 43.4007C126.163 43.4007 125.683 43.3412 125.144 43.2223C124.604 43.1034 124.124 42.9251 123.645 42.7467C123.165 42.5089 122.685 42.2116 122.325 41.9144C121.906 41.5576 121.546 41.1415 121.306 40.7253H121.246V49.7622H119.447V29.4292ZM121.006 36.2069C121.006 36.9798 121.126 37.6932 121.426 38.3472C121.726 39.0012 122.146 39.5957 122.625 40.1308C123.165 40.6064 123.765 41.0226 124.424 41.3198C125.084 41.6171 125.863 41.736 126.643 41.736C127.482 41.736 128.202 41.6171 128.861 41.3198C129.521 41.0226 130.121 40.6064 130.6 40.1308C131.08 39.6551 131.44 39.0606 131.68 38.3472C131.92 37.6932 132.039 36.9798 132.039 36.2069C132.039 35.434 131.92 34.7205 131.68 34.0666C131.44 33.4126 131.08 32.818 130.6 32.283C130.121 31.8073 129.581 31.3912 128.861 31.0939C128.202 30.7966 127.422 30.6777 126.643 30.6777C125.863 30.6777 125.084 30.7966 124.424 31.0939C123.765 31.3912 123.165 31.8073 122.625 32.283C122.086 32.7586 121.726 33.3531 121.426 34.0666C121.186 34.7205 121.006 35.434 121.006 36.2069Z" fill="#F9ECE5"/>
</g>
<defs>
<clipPath id="clip0_572_1990">
<rect width="164" height="50" fill="white"/>
</clipPath>
</defs>
</svg>
